<svg version="1.2" xmlns="http://www.w3.org/2000/svg" viewBox="0 0 16 17" width="16" height="17"><defs><clipPath clipPathUnits="userSpaceOnUse" id="cp1"><path d="m-221-155h281v609h-281z"/></clipPath></defs><style>.a{fill:#b6bed4;stroke:#b6bed4}</style><g clip-path="url(#cp1)"><path fill-rule="evenodd" class="a" d="m10.2 11.5c0 1-0.6 1.7-1.4 1.9v1.6c0 0.3-0.3 0.5-0.6 0.5-0.2 0-0.5-0.2-0.5-0.5v-1.6c-0.8-0.2-1.4-0.9-1.4-1.9 0-0.9 0.6-1.6 1.4-1.9v-7c0-0.2 0.3-0.5 0.5-0.5 0.3 0 0.6 0.3 0.6 0.5v7c0.8 0.3 1.4 1 1.4 1.9zm-1 0c0-0.5-0.4-0.9-1-0.9-0.5 0-0.9 0.4-0.9 0.9 0 0.6 0.4 1 0.9 1 0.6 0 1-0.4 1-1z"/><path fill-rule="evenodd" class="a" d="m13.3 7.9v7.2c0 0.3-0.2 0.6-0.5 0.6-0.3 0-0.5-0.3-0.5-0.6v-7.2c-0.9-0.2-1.5-1-1.5-1.9 0-0.9 0.6-1.6 1.5-1.9v-1.3c0-0.3 0.2-0.5 0.5-0.5 0.3 0 0.5 0.2 0.5 0.5v1.3c0.8 0.3 1.5 1 1.5 1.9 0 0.9-0.7 1.7-1.5 1.9zm0.4-1.9c0-0.5-0.4-0.9-0.9-0.9-0.6 0-1 0.4-1 0.9 0 0.6 0.4 1 1 1 0.5 0 0.9-0.4 0.9-1z"/><path fill-rule="evenodd" class="a" d="m5.7 5.8c0 0.9-0.6 1.6-1.5 1.9v7.2c0 0.3-0.2 0.5-0.5 0.5-0.3 0-0.5-0.2-0.5-0.5v-7.2c-0.8-0.3-1.5-1-1.5-1.9 0-1 0.7-1.7 1.5-1.9v-1.4c0-0.3 0.2-0.5 0.5-0.5 0.3 0 0.5 0.2 0.5 0.5v1.4c0.9 0.2 1.5 0.9 1.5 1.9zm-1 0c0-0.6-0.4-1-1-1-0.5 0-0.9 0.4-0.9 1 0 0.5 0.4 0.9 0.9 0.9 0.6 0 1-0.4 1-0.9z"/></g></svg>